<svg width="353" height="32" viewBox="0 0 353 32" fill="none" xmlns="http://www.w3.org/2000/svg">
<path d="M150.958 31.5753C149.826 31.5512 148.863 31.3465 148.068 30.9611C147.273 30.5758 146.635 30.07 146.153 29.4438C145.671 28.8416 145.322 28.1432 145.105 27.3484C144.889 26.5777 144.78 25.7708 144.78 24.9279C144.78 24.0849 144.877 23.266 145.069 22.4712C145.262 21.6764 145.587 20.9779 146.045 20.3758C146.526 19.7496 147.165 19.2559 147.959 18.8946C148.778 18.5092 149.802 18.3045 151.03 18.2804H167.215C168.444 18.2804 169.455 18.4731 170.25 18.8585C171.069 19.2197 171.707 19.7135 172.165 20.3397C172.646 20.9418 172.984 21.6523 173.176 22.4712C173.369 23.266 173.465 24.0849 173.465 24.9279C173.465 25.7708 173.357 26.5777 173.14 27.3484C172.923 28.1432 172.562 28.8416 172.056 29.4438C171.575 30.07 170.936 30.5758 170.142 30.9611C169.371 31.3465 168.419 31.5512 167.287 31.5753H150.958ZM165.662 26.662C166.36 26.6138 166.866 26.4693 167.179 26.2284C167.492 26.0117 167.649 25.5781 167.649 24.9279C167.649 24.2535 167.492 23.8079 167.179 23.5911C166.866 23.3503 166.36 23.2058 165.662 23.1576H152.584C151.885 23.2058 151.379 23.3503 151.066 23.5911C150.753 23.8079 150.597 24.2535 150.597 24.9279C150.597 25.5781 150.753 26.0117 151.066 26.2284C151.379 26.4693 151.885 26.6138 152.584 26.662H165.662ZM147.128 16.1489C146.454 16.1489 145.924 16.0887 145.539 15.9683C145.154 15.8238 144.852 15.6431 144.636 15.4264C144.443 15.1855 144.323 14.9206 144.274 14.6316C144.226 14.3185 144.202 13.9813 144.202 13.62V3.46824C144.202 3.01063 144.226 2.60119 144.274 2.23992C144.323 1.85456 144.443 1.54145 144.636 1.30061C144.852 1.03567 145.154 0.842994 145.539 0.722569C145.924 0.578059 146.454 0.505804 147.128 0.505804H150.38C151.56 0.505804 152.343 0.758695 152.728 1.26448C153.114 1.74617 153.306 2.33625 153.306 3.03471C153.306 3.32373 153.258 3.61275 153.162 3.90177C153.089 4.19079 152.945 4.45572 152.728 4.69657C152.511 4.91333 152.21 5.09397 151.825 5.23848C151.44 5.35891 150.958 5.41912 150.38 5.41912H149.332V11.2356H151.102C151.68 11.2356 152.162 11.3079 152.548 11.4524C152.933 11.5728 153.234 11.7534 153.451 11.9943C153.667 12.211 153.812 12.4639 153.884 12.753C153.981 13.042 154.029 13.331 154.029 13.62C154.029 14.3185 153.836 14.9206 153.451 15.4264C153.065 15.9081 152.283 16.1489 151.102 16.1489H147.128ZM158.003 16.1489C157.328 16.1489 156.799 16.0887 156.413 15.9683C156.028 15.8238 155.727 15.6431 155.51 15.4264C155.317 15.1855 155.197 14.9206 155.149 14.6316C155.101 14.3185 155.076 13.9813 155.076 13.62V3.46824C155.076 3.01063 155.101 2.60119 155.149 2.23992C155.197 1.85456 155.317 1.54145 155.51 1.30061C155.727 1.03567 156.028 0.842994 156.413 0.722569C156.799 0.578059 157.328 0.505804 158.003 0.505804H161.074C162.254 0.505804 163.037 0.758695 163.422 1.26448C163.807 1.74617 164 2.33625 164 3.03471C164 3.32373 163.952 3.61275 163.855 3.90177C163.783 4.19079 163.639 4.45572 163.422 4.69657C163.205 4.91333 162.904 5.09397 162.519 5.23848C162.133 5.35891 161.652 5.41912 161.074 5.41912H160.207V11.2356H161.796C162.374 11.2356 162.856 11.3079 163.241 11.4524C163.627 11.5728 163.928 11.7534 164.144 11.9943C164.361 12.211 164.506 12.4639 164.578 12.753C164.674 13.042 164.722 13.331 164.722 13.62C164.722 14.3185 164.53 14.9206 164.144 15.4264C163.759 15.9081 162.976 16.1489 161.796 16.1489H158.003ZM169.6 17.1966C169.214 17.1966 168.853 17.1484 168.516 17.0521C168.179 16.9558 167.878 16.7872 167.613 16.5463C167.372 16.3055 167.167 15.9803 166.998 15.5709C166.854 15.1614 166.782 14.6436 166.782 14.0174V3.28761C166.782 2.08336 167.059 1.26448 167.613 0.830949C168.167 0.373337 168.829 0.144531 169.6 0.144531C170.346 0.144531 170.972 0.373337 171.478 0.830949C172.008 1.26448 172.273 2.08336 172.273 3.28761V5.81652H173.754C174.429 5.81652 174.983 5.90081 175.416 6.06941C175.85 6.21392 176.187 6.4066 176.428 6.64744C176.669 6.88829 176.825 7.16527 176.897 7.47837C176.994 7.76739 177.042 8.05641 177.042 8.34543C177.042 8.7067 176.994 9.04389 176.897 9.35699C176.825 9.67009 176.669 9.94707 176.428 10.1879C176.187 10.4047 175.85 10.5853 175.416 10.7298C174.983 10.8743 174.429 10.9466 173.754 10.9466H172.273V14.0174C172.273 15.2698 172.02 16.1128 171.514 16.5463C171.009 16.9799 170.37 17.1966 169.6 17.1966Z" fill="#29903E"/>
<path d="M182.497 31.7198C181.823 31.7198 181.293 31.6475 180.908 31.503C180.522 31.3585 180.221 31.1538 180.004 30.8888C179.812 30.648 179.691 30.359 179.643 30.0218C179.595 29.7087 179.571 29.3835 179.571 29.0463V24.7111C179.571 24.4702 179.595 24.2173 179.643 23.9524C179.715 23.6875 179.848 23.4466 180.041 23.2299C180.233 22.989 180.51 22.7963 180.871 22.6518C181.233 22.5073 181.714 22.4351 182.317 22.4351H200.38V20.9177H182.244C181.642 20.9177 181.161 20.8695 180.799 20.7732C180.438 20.6769 180.161 20.5444 179.968 20.3758C179.776 20.1831 179.643 19.9664 179.571 19.7255C179.523 19.4606 179.499 19.1836 179.499 18.8946C179.499 18.6537 179.523 18.4129 179.571 18.172C179.643 17.9312 179.776 17.7144 179.968 17.5217C180.161 17.305 180.438 17.1364 180.799 17.016C181.161 16.8955 181.642 16.8353 182.244 16.8353H189.398V14.9206H179.788C179.186 14.9206 178.704 14.8724 178.343 14.7761C177.981 14.6556 177.704 14.5111 177.512 14.3425C177.319 14.1499 177.187 13.9211 177.114 13.6561C177.066 13.3912 177.042 13.0901 177.042 12.7529C177.042 12.488 177.066 12.2351 177.114 11.9943C177.187 11.7293 177.319 11.5005 177.512 11.3078C177.704 11.0911 177.981 10.9225 178.343 10.8021C178.704 10.6816 179.186 10.6214 179.788 10.6214H206.052C206.654 10.6214 207.136 10.6816 207.497 10.8021C207.859 10.9225 208.136 11.0911 208.328 11.3078C208.521 11.5005 208.641 11.7293 208.69 11.9943C208.762 12.2351 208.798 12.488 208.798 12.7529C208.798 13.0901 208.762 13.3912 208.69 13.6561C208.641 13.9211 208.521 14.1499 208.328 14.3425C208.136 14.5111 207.859 14.6556 207.497 14.7761C207.136 14.8724 206.654 14.9206 206.052 14.9206H195.25V16.8353H203.487C204.065 16.8353 204.535 16.8955 204.896 17.016C205.257 17.1364 205.534 17.2929 205.727 17.4856C205.92 17.6783 206.052 17.8951 206.124 18.1359C206.197 18.3768 206.233 18.6176 206.233 18.8584V24.4221C206.233 24.7111 206.197 24.964 206.124 25.1807C206.052 25.3975 205.908 25.5781 205.691 25.7226C205.498 25.8912 205.221 26.0117 204.86 26.0839C204.523 26.1562 204.065 26.1923 203.487 26.1923H185.424V27.818H203.74C204.414 27.818 204.968 27.8662 205.402 27.9625C205.835 28.0589 206.173 28.1913 206.413 28.3599C206.654 28.5285 206.811 28.7332 206.883 28.9741C206.979 29.2149 207.028 29.4799 207.028 29.7689C207.028 30.1061 206.979 30.3951 206.883 30.6359C206.811 30.8768 206.654 31.0815 206.413 31.2501C206.173 31.4187 205.835 31.5391 205.402 31.6114C204.968 31.6836 204.414 31.7198 203.74 31.7198H182.497ZM201.825 9.57373C201.199 9.45331 200.657 9.21246 200.2 8.85119C199.766 8.48991 199.597 7.93596 199.694 7.18933C199.718 6.94848 199.742 6.64742 199.766 6.28615C199.814 5.90079 199.838 5.41909 199.838 4.84106V4.47978H182.786C182.112 4.47978 181.558 4.43162 181.124 4.33528C180.691 4.21485 180.354 4.0583 180.113 3.86562C179.872 3.67294 179.703 3.44414 179.607 3.1792C179.535 2.89019 179.499 2.56504 179.499 2.20376C179.499 1.91475 179.535 1.63777 179.607 1.37284C179.703 1.08382 179.872 0.842971 180.113 0.650292C180.354 0.457612 180.691 0.30106 181.124 0.180636C181.558 0.0602117 182.112 0 182.786 0H203.054C203.704 0 204.21 0.0722543 204.571 0.216763C204.932 0.337187 205.209 0.517824 205.402 0.758674C205.595 0.975438 205.715 1.25241 205.763 1.5896C205.811 1.92679 205.835 2.31215 205.835 2.74568V3.43209C205.835 4.32323 205.823 5.15416 205.799 5.92488C205.775 6.67151 205.631 7.4061 205.366 8.12864C205.221 8.514 205.005 8.81506 204.715 9.03183C204.451 9.24859 204.15 9.40514 203.812 9.50148C203.475 9.59782 203.126 9.64599 202.765 9.64599C202.427 9.64599 202.114 9.6219 201.825 9.57373Z" fill="#29903E"/>
</svg>
