<svg width="24" height="24" viewBox="0 0 24 24" fill="none" xmlns="http://www.w3.org/2000/svg">
<path fill-rule="evenodd" clip-rule="evenodd" d="M3.80674 6.20757C4.70687 5.30771 5.92755 4.8022 7.20034 4.8022C8.47313 4.8022 9.69381 5.30771 10.5939 6.20757L12.0003 7.61277L13.4067 6.20757C13.8495 5.74912 14.3792 5.38345 14.9648 5.13188C15.5504 4.88032 16.1803 4.74791 16.8176 4.74237C17.455 4.73683 18.087 4.85828 18.6769 5.09963C19.2668 5.34098 19.8028 5.69739 20.2534 6.14807C20.7041 6.59876 21.0605 7.13469 21.3019 7.72459C21.5432 8.31449 21.6647 8.94656 21.6591 9.5839C21.6536 10.2212 21.5212 10.8511 21.2696 11.4367C21.0181 12.0223 20.6524 12.552 20.1939 12.9948L12.0003 21.1896L3.80674 12.9948C2.90688 12.0946 2.40137 10.874 2.40137 9.60117C2.40137 8.32838 2.90688 7.1077 3.80674 6.20757V6.20757Z" stroke="#001C3D" stroke-width="2" stroke-linejoin="round"/>
</svg>
