<svg width="24" height="24" viewBox="0 0 24 24" fill="none" xmlns="http://www.w3.org/2000/svg">
<path fill-rule="evenodd" clip-rule="evenodd" d="M10.7938 2.97019C11.1956 2.66514 11.6862 2.5 12.1907 2.5C12.6952 2.5 13.1858 2.66514 13.5876 2.97019L14.6041 3.74181C17.5903 6.01037 20.1485 8.79278 22.1587 11.9586L22.4852 12.4715C22.633 12.7044 22.7156 12.9727 22.7244 13.2483C22.7331 13.524 22.6676 13.797 22.5348 14.0387C22.402 14.2805 22.2066 14.4821 21.9693 14.6226C21.7319 14.763 21.4611 14.8372 21.1853 14.8372H20.121C20.1826 16.2542 20.1056 17.6727 19.89 19.0758C19.7862 19.7511 19.4439 20.3669 18.9252 20.8117C18.4064 21.2564 17.7455 21.5006 17.0623 21.5H14.1159V16.4236C14.1159 15.913 13.9131 15.4233 13.552 15.0623C13.191 14.7012 12.7013 14.4984 12.1907 14.4984C11.6801 14.4984 11.1904 14.7012 10.8294 15.0623C10.4683 15.4233 10.2655 15.913 10.2655 16.4236V21.5H7.31913C6.63646 21.4989 5.97661 21.2541 5.45845 20.8097C4.94029 20.3652 4.59788 19.7503 4.49291 19.0758C4.27729 17.6727 4.20028 16.2526 4.26189 14.8372H3.19609C2.92026 14.8372 2.64951 14.763 2.41213 14.6226C2.17474 14.4821 1.97943 14.2805 1.8466 14.0387C1.71377 13.797 1.6483 13.524 1.65702 13.2483C1.66574 12.9727 1.74834 12.7044 1.89618 12.4715L2.22116 11.9571C4.23199 8.79166 6.79065 6.00978 9.77724 3.74181L10.7938 2.97019Z" fill="#B8BBB8"/>
</svg>
