<svg width="32" height="32" viewBox="0 0 32 32" fill="none" xmlns="http://www.w3.org/2000/svg">
<rect width="32" height="32" rx="16" fill="#393B38" fill-opacity="0.4"/>
<path fill-rule="evenodd" clip-rule="evenodd" d="M9.17231 11.1728C9.92242 10.4229 10.9396 10.0017 12.0003 10.0017C13.061 10.0017 14.0782 10.4229 14.8283 11.1728L16.0003 12.3438L17.1723 11.1728C17.5413 10.7908 17.9827 10.486 18.4707 10.2764C18.9587 10.0668 19.4836 9.95643 20.0147 9.95181C20.5458 9.9472 21.0725 10.0484 21.5641 10.2495C22.0557 10.4506 22.5023 10.7477 22.8779 11.1232C23.2535 11.4988 23.5505 11.9454 23.7516 12.437C23.9527 12.9286 24.0539 13.4553 24.0493 13.9864C24.0447 14.5175 23.9343 15.0424 23.7247 15.5304C23.5151 16.0184 23.2103 16.4598 22.8283 16.8288L16.0003 23.6578L9.17231 16.8288C8.42242 16.0787 8.00116 15.0615 8.00116 14.0008C8.00116 12.9402 8.42242 11.9229 9.17231 11.1728V11.1728Z" stroke="#F8F8F8" stroke-width="2" stroke-linejoin="round"/>
</svg>
