<svg width="24" height="24" viewBox="0 0 24 24" fill="none" xmlns="http://www.w3.org/2000/svg">
<path fill-rule="evenodd" clip-rule="evenodd" d="M17.6858 12.084L10.429 19.3457C10.1436 19.6312 9.77976 19.8264 9.38408 19.9063L5.01787 20.7861C4.73884 20.8424 4.4496 20.755 4.24834 20.5537C4.04718 20.3523 3.96051 20.0632 4.01689 19.7842L4.89775 15.4238C4.9776 15.0289 5.17252 14.6659 5.45732 14.3809L12.7171 7.11524L17.6858 12.084ZM15.2317 4.6006C16.0319 3.80019 17.3304 3.79974 18.1312 4.59962L20.2015 6.667C21.0023 7.46716 21.0025 8.76548 20.2024 9.56642L18.5335 11.2363L13.5647 6.26759L15.2317 4.6006Z" fill="#A8ACA8"/>
</svg>
