<svg width="24" height="24" viewBox="0 0 24 24" fill="none" xmlns="http://www.w3.org/2000/svg">
<path d="M12 9C13.6569 9 15 10.3431 15 12C15 13.6569 13.6569 15 12 15C10.3431 15 9 13.6569 9 12C9 10.3431 10.3431 9 12 9Z" stroke="#001C3D" stroke-width="2"/>
<path d="M9.35254 4.08008C10.028 1.30728 13.972 1.30728 14.6475 4.08008V4.08203L14.6719 4.16309C14.7015 4.24287 14.7452 4.31685 14.8008 4.38184C14.8748 4.46835 14.968 4.53648 15.0732 4.58008C15.1785 4.62365 15.2927 4.64162 15.4062 4.63281C15.5199 4.62397 15.6303 4.58865 15.7275 4.5293L15.957 4.40234C18.3366 3.21686 20.9113 5.90969 19.4717 8.27246L19.4707 8.27344C19.4115 8.37058 19.376 8.48034 19.3672 8.59375C19.3583 8.70733 19.3763 8.8215 19.4199 8.92676C19.4635 9.03196 19.5317 9.12515 19.6182 9.19922L19.6855 9.25098C19.7562 9.29837 19.8349 9.33335 19.918 9.35352C22.695 10.026 22.6925 13.974 19.9189 14.6475V14.6465C19.8082 14.6734 19.7057 14.7267 19.6191 14.8008C19.5326 14.875 19.4645 14.9689 19.4209 15.0742C19.3774 15.1795 19.3594 15.2937 19.3682 15.4072C19.377 15.5205 19.4117 15.6304 19.4707 15.7275C20.9568 18.1664 18.1663 20.9577 15.7275 19.4717C15.6303 19.4125 15.5207 19.377 15.4072 19.3682C15.2937 19.3594 15.1794 19.3774 15.0742 19.4209C14.9689 19.4645 14.875 19.5326 14.8008 19.6191C14.7271 19.7052 14.6736 19.807 14.6465 19.917L14.6475 19.918C13.975 22.6949 10.0271 22.6923 9.35352 19.9189L9.35254 19.918C9.32568 19.8074 9.27321 19.7046 9.19922 19.6182C9.12516 19.5317 9.03195 19.4635 8.92676 19.4199C8.82153 19.3764 8.70729 19.3584 8.59375 19.3672C8.48015 19.376 8.36973 19.4113 8.27246 19.4707V19.4717C5.8337 20.9577 3.04222 18.1664 4.52832 15.7275H4.5293C4.58865 15.6303 4.62397 15.5198 4.63281 15.4062C4.64161 15.2927 4.62364 15.1784 4.58008 15.0732C4.53649 14.9681 4.46833 14.8748 4.38184 14.8008C4.29537 14.7268 4.19263 14.6743 4.08203 14.6475C1.30504 13.975 1.30767 10.0271 4.08105 9.35352L4.16699 9.32617C4.55563 9.17972 4.74222 8.73057 4.57129 8.35254L4.52832 8.27246C3.0425 5.83386 5.83293 3.04338 8.27148 4.52832C8.36874 4.58756 8.47923 4.62306 8.59277 4.63184C8.70635 4.6406 8.82056 4.62274 8.92578 4.5791C9.03096 4.53547 9.12423 4.46739 9.19824 4.38086C9.27223 4.29433 9.32477 4.1917 9.35156 4.08105L9.35254 4.08008Z" stroke="#001C3D" stroke-width="2"/>
</svg>
